<?xml version="1.0" encoding="UTF-8"?><!DOCTYPE svg PUBLIC "-//W3C//DTD SVG 1.1//EN" "http://www.w3.org/Graphics/SVG/1.1/DTD/svg11.dtd"><svg xmlns="http://www.w3.org/2000/svg"><symbol id="icon-checkbox_check" viewBox="0 0 14.007 12.013"><path clip-rule="evenodd" d="M0 7.494l2.408-2.598 2.59 2.474 6.6-7.37 2.41 2.293-9.01 9.72L0 7.493z"/></symbol><symbol id="icon-plane-arrival" viewBox="0 0 361.228 361.228"><path d="M12.348 132.04c-.012 0-.023-.002-.036-.004-4.478-.737-8.776 2.086-9.873 6.494-1.103 4.42 1.383 8.94 5.705 10.38l121.85 40.54-40.533 16.142c-2.944 1.173-4.746 4.165-4.404 7.314.34 3.15 2.74 5.688 5.87 6.203l26.57 4.372c.763.125 1.54.125 2.304-.002l100.975-16.795 97.254 15.842c37.177 5.542 42.322-7.73 43.013-11.93.537-3.257.166-8.44-4.64-14.627-4.876-6.28-13.27-12.348-25.653-18.553-4.135-2.072-6.104-3.632-8.188-5.284-7.334-5.807-12.79-9.106-47.81-14.87L83.207 125.735 50.492 57.958c-1.234-2.556-3.634-4.35-6.436-4.812l-12.517-2.06c-2.578-.425-5.21.328-7.17 2.052s-3.047 4.236-2.957 6.845l2.525 74.013-11.59-1.955zM342.707 277.05H16.604C7.434 277.05 0 284.485 0 293.655s7.434 16.604 16.604 16.604h326.103c9.17 0 16.605-7.436 16.605-16.604s-7.435-16.603-16.605-16.603z"/></symbol><symbol id="icon-plane-departure" viewBox="0 0 371.656 371.656"><path d="M37.833 212.348l-.032.017c-4.026 2.093-5.775 6.93-4.014 11.114 1.766 4.198 6.465 6.33 10.787 4.89l121.85-40.54-22.784 37.207c-1.656 2.703-1.306 6.178.855 8.497 2.16 2.318 5.603 2.912 8.417 1.45l23.894-12.417c.686-.356 1.31-.823 1.844-1.383l70.785-73.94 87.358-45.583c33.085-17.834 29.252-31.544 27.29-35.32-1.52-2.928-4.922-6.854-12.48-8.93-7.664-2.106-18.02-1.938-31.652.514-4.55.818-7.062.75-9.722.676-9.35-.256-15.694.37-47.188 16.736L90.788 164.85l-66.8-34.667c-2.52-1.307-5.516-1.306-8.035.004l-11.256 5.85C2.38 137.24.725 139.42.187 141.975c-.538 2.556.098 5.218 1.732 7.253l46.363 57.75-10.45 5.37zM355.052 282.5H28.948c-9.17 0-16.604 7.437-16.604 16.605s7.434 16.604 16.604 16.604h326.104c9.17 0 16.604-7.435 16.604-16.605 0-9.17-7.434-16.604-16.604-16.604z"/></symbol></svg>